HIERARCHY
ROOT hip
{
  OFFSET 0 0 0
  CHANNELS 6 Xposition Yposition Zposition Zrotation Yrotation Xrotation
  JOINT abdomen
  {
    OFFSET 0 20.6881 -0.73152
    CHANNELS 3 Zrotation Xrotation Yrotation
    JOINT chest
    {
      OFFSET 0 11.7043 -0.48768
      CHANNELS 3 Zrotation Xrotation Yrotation
      JOINT neck
      {
        OFFSET 0 22.1894 -2.19456
        CHANNELS 3 Zrotation Xrotation Yrotation
        JOINT head
        {
          OFFSET -0.24384 7.07133 1.2192
          CHANNELS 3 Zrotation Xrotation Yrotation
          JOINT leftEye
          {
            OFFSET 4.14528 8.04674 8.04672
            CHANNELS 3 Zrotation Xrotation Yrotation
            End Site
            {
              OFFSET 1 0 0
            }
          }
          JOINT rightEye
          {
            OFFSET -3.6576 8.04674 8.04672
            CHANNELS 3 Zrotation Xrotation Yrotation
            End Site
            {
              OFFSET 1 0 0
            }
          }
        }
      }
      JOINT rCollar
      {
        OFFSET -2.68224 19.2634 -4.8768
        CHANNELS 3 Zrotation Xrotation Yrotation
        JOINT rShldr
        {
          OFFSET -8.77824 -1.95073 1.46304
          CHANNELS 3 Zrotation Xrotation Yrotation
          JOINT rForeArm
          {
            OFFSET -28.1742 -1.7115 0.48768
            CHANNELS 3 Zrotation Xrotation Yrotation
            JOINT rHand
            {
              OFFSET -22.5879 0.773209 7.07136
              CHANNELS 3 Zrotation Xrotation Yrotation
              JOINT rThumb1
              {
                OFFSET -1.2192 -0.487915 3.41376
                CHANNELS 3 Zrotation Xrotation Yrotation
                JOINT rThumb2
                {
                  OFFSET -3.37035 -0.52449 3.41376
                  CHANNELS 3 Zrotation Xrotation Yrotation
                  End Site
                  {
                    OFFSET -1.78271 -1.18214 1.43049
                  }
                }
              }
              JOINT rIndex1
              {
                OFFSET -7.75947 0.938293 5.60832
                CHANNELS 3 Zrotation Xrotation Yrotation
                JOINT rIndex2
                {
                  OFFSET -2.54057 -0.884171 1.56538
                  CHANNELS 3 Zrotation Xrotation Yrotation
                  End Site
                  {
                    OFFSET -1.62519 -0.234802 1.16502
                  }
                }
              }
              JOINT rMid1
              {
                OFFSET -8.24714 1.18213 3.41376
                CHANNELS 3 Zrotation Xrotation Yrotation
                JOINT rMid2
                {
                  OFFSET -3.10165 -0.590103 1.0647
                  CHANNELS 3 Zrotation Xrotation Yrotation
                  End Site
                  {
                    OFFSET -2.48547 -0.328903 0.83742
                  }
                }
              }
              JOINT rRing1
              {
                OFFSET -8.82822 0.546677 1.51678
                CHANNELS 3 Zrotation Xrotation Yrotation
                JOINT rRing2
                {
                  OFFSET -2.60934 -0.819778 -0.0198488
                  CHANNELS 3 Zrotation Xrotation Yrotation
                  End Site
                  {
                    OFFSET -2.33842 -0.294052 0.168128
                  }
                }
              }
              JOINT rPinky1
              {
                OFFSET -8.27202 -0.0477905 -0.4584
                CHANNELS 3 Zrotation Xrotation Yrotation
                JOINT rPinky2
                {
                  OFFSET -1.82734 -0.647385 -0.700984
                  CHANNELS 3 Zrotation Xrotation Yrotation
                  End Site
                  {
                    OFFSET -1.69225 -0.51767 -0.607171
                  }
                }
              }
            }
          }
        }
      }
      JOINT lCollar
      {
        OFFSET 2.68224 19.2634 -4.8768
        CHANNELS 3 Zrotation Xrotation Yrotation
        JOINT lShldr
        {
          OFFSET 8.77824 -1.95073 1.46304
          CHANNELS 3 Zrotation Xrotation Yrotation
          JOINT lForeArm
          {
            OFFSET 28.1742 -1.7115 0.48768
            CHANNELS 3 Zrotation Xrotation Yrotation
            JOINT lHand
            {
              OFFSET 22.5879 0.773209 7.07136
              CHANNELS 3 Zrotation Xrotation Yrotation
              JOINT lThumb1
              {
                OFFSET 1.2192 -0.487915 3.41376
                CHANNELS 3 Zrotation Xrotation Yrotation
                JOINT lThumb2
                {
                  OFFSET 3.37035 -0.52449 3.41376
                  CHANNELS 3 Zrotation Xrotation Yrotation
                  End Site
                  {
                    OFFSET 1.78271 -1.18214 1.43049
                  }
                }
              }
              JOINT lIndex1
              {
                OFFSET 7.75947 0.938293 5.60832
                CHANNELS 3 Zrotation Xrotation Yrotation
                JOINT lIndex2
                {
                  OFFSET 2.54057 -0.884171 1.56538
                  CHANNELS 3 Zrotation Xrotation Yrotation
                  End Site
                  {
                    OFFSET 1.62519 -0.234802 1.16502
                  }
                }
              }
              JOINT lMid1
              {
                OFFSET 8.24714 1.18213 3.41376
                CHANNELS 3 Zrotation Xrotation Yrotation
                JOINT lMid2
                {
                  OFFSET 3.10165 -0.590103 1.0647
                  CHANNELS 3 Zrotation Xrotation Yrotation
                  End Site
                  {
                    OFFSET 2.48547 -0.328903 0.83742
                  }
                }
              }
              JOINT lRing1
              {
                OFFSET 8.82822 0.546677 1.51678
                CHANNELS 3 Zrotation Xrotation Yrotation
                JOINT lRing2
                {
                  OFFSET 2.60934 -0.819778 -0.0198488
                  CHANNELS 3 Zrotation Xrotation Yrotation
                  End Site
                  {
                    OFFSET 2.33842 -0.294052 0.168128
                  }
                }
              }
              JOINT lPinky1
              {
                OFFSET 8.27202 -0.0477905 -0.4584
                CHANNELS 3 Zrotation Xrotation Yrotation
                JOINT lPinky2
                {
                  OFFSET 1.82734 -0.647385 -0.700984
                  CHANNELS 3 Zrotation Xrotation Yrotation
                  End Site
                  {
                    OFFSET 1.69225 -0.51767 -0.607171
                  }
                }
              }
            }
          }
        }
      }
    }
  }
  JOINT rButtock
  {
    OFFSET -8.77824 4.35084 1.2192
    CHANNELS 3 Zrotation Xrotation Yrotation
    JOINT rThigh
    {
      OFFSET 0 -1.70687 -2.19456
      CHANNELS 3 Zrotation Xrotation Yrotation
      JOINT rShin
      {
        OFFSET 0 -36.8199 0.73152
        CHANNELS 3 Zrotation Xrotation Yrotation
        JOINT rFoot
        {
          OFFSET 0.73152 -45.1104 -5.12064
          CHANNELS 3 Zrotation Xrotation Yrotation
          End Site
          {
            OFFSET -1.1221 -3.69964 12.103
          }
        }
      }
    }
  }
  JOINT lButtock
  {
    OFFSET 8.77824 4.35084 1.2192
    CHANNELS 3 Zrotation Xrotation Yrotation
    JOINT lThigh
    {
      OFFSET 0 -1.70687 -2.19456
      CHANNELS 3 Zrotation Xrotation Yrotation
      JOINT lShin
      {
        OFFSET 0 -36.8199 0.73152
        CHANNELS 3 Zrotation Xrotation Yrotation
        JOINT lFoot
        {
          OFFSET -0.73152 -45.1104 -5.12064
          CHANNELS 3 Zrotation Xrotation Yrotation
          End Site
          {
            OFFSET 1.1221 -3.69964 12.103
          }
        }
      }
    }
  }
}
MOTION
Frames:	4
Frame Time:	0.03333
4.9009 69.7082 6.9095 -0.285124 16.581679 6.969545 -5.11867 17.588475 -0.0 3.699905 -14.890015 11.506176 -13.169475 30.904861 -70.157067 47.218845 -6.411465 51.805461 7.63202 0.158835 2.380969 -14.298498 8.043281 -58.54341 -149.148145 10.880959 164.98484 -58.826576 -41.345902 -50.215325 -115.016249 13.683869 -18.525994 78.578463 -66.212027 53.327877 -2.142401 1.399129 18.07153 -16.579703 -23.821759 -47.386988 -154.862569 -33.918064 109.24616 15.867286 39.415488 14.065686 89.026906 -81.897752 62.618776 19.367886 2.507587 -5.966107 -102.543703 76.166556 84.987785 -101.178141 54.988157 79.763642 -142.726756 -12.154258 -122.973596 90.574983 63.317506 -15.615432 82.137553 63.648258 -81.363904 2.540052 -18.906159 -78.407913 -145.304155 72.894094 -100.353562 147.741558 25.416442 -135.701585 -14.71277 -9.534382 18.08224 8.675154 -11.23292 -17.785102 0.542429 37.098752 16.538308 163.786348 -5.940723 -78.559001 35.273719 52.135906 -29.151945 -174.702431 -29.85361 -138.362277 70.001389 -55.948072 100.58935 -68.051592 -66.920002 -23.746403 -8.746135 43.47446 11.134383 131.541066 17.899397 -179.475957 23.043706 2.887727 0.0 -25.174679 -42.255301 -0.0 66.826224 72.893954 121.444623 176.461209 -7.473084 -138.142389 142.020794 69.373224 -0.0 -161.299522 2.503176 86.239914 83.422709 -41.034996 -17.702421 -168.058244 -22.930789 66.030094
5.4704999999999995 69.9718 7.606599999999999 -0.250536 17.381019 6.691788 -3.950032 17.347274 -20.962896 7.602124 -13.038424 32.695454 -8.057755 38.347955 -126.116333 46.035143 31.437507 89.156454 7.982767 0.077201 1.10638 -19.697985 12.011214 -62.429355 -143.062321 41.152342 155.651906 -111.503996 -75.887833 -77.857125 -22.131145 -38.775227 88.348377 4.826928 -2.360268 -9.92106 171.649584 -19.111051 68.869173 -139.342072 -15.9511 48.33666 165.679 -58.230516 88.055255 36.364109 3.717131 19.149658 -154.2623 18.449353 137.884693 -5.575355 -20.273207 -12.793852 -177.644116 1.711638 179.429923 145.812496 50.483596 -150.903543 -136.317047 -16.783207 -118.473631 48.390301 5.301635 2.946267 12.800332 24.575816 -12.584185 -89.776259 -3.991857 -46.449004 -166.581398 -30.139324 -55.087408 147.134719 26.431449 -134.519175 24.415443 40.65001 -2.612157 -17.117812 -40.691365 -16.406267 -5.003325 9.306542 26.732065 67.619637 17.552851 -66.27746 153.500307 13.495883 -138.375373 29.220205 65.151611 -18.786333 -20.866996 25.048406 8.224627 -167.984197 -26.227734 -168.807895 47.590492 -24.577673 35.050281 -44.348141 15.016382 1.303698 -23.969599 16.960801 -30.490348 53.394811 -34.861803 94.942676 73.25593 28.365237 -149.555498 102.203848 21.16364 8.39434 -85.419464 19.956132 -28.282153 110.389722 -25.195409 -50.698103 -84.097005 24.631941 172.114962 -11.149571 -27.598415 -88.43358
5.9414 70.39699999999999 8.5913 -0.302352 17.935954 7.637871 -1.389758 14.021941 -89.223819 12.857564 -0.317527 99.769725 8.740848 23.637446 63.227958 -40.306738 -4.632199 -89.335058 10.118136 -0.185431 -2.094386 -35.884189 16.676631 -48.707167 6.024153 -17.957886 -10.30412 -118.750351 -2.218637 141.025398 51.135653 12.356572 -170.815823 -173.762566 38.268346 133.483651 98.844893 -31.938018 41.228685 -56.798202 -37.141033 -12.661677 96.846252 -59.510635 36.193319 -75.637748 20.071052 53.846691 -86.983651 58.677763 77.334204 78.37504 -72.475941 59.9269 -170.322443 -18.956652 -176.266 -49.375743 -46.194152 -66.534597 -97.956126 -43.215227 -90.815472 -94.837546 56.097016 152.12197 145.94046 36.886122 -143.998433 -45.769885 -64.010967 -105.179556 160.320912 51.2914 -49.597507 157.55583 5.783767 -143.529033 8.708169 25.866423 6.505645 147.803083 -24.679903 -87.198542 19.951716 57.443415 -11.453034 91.195334 29.891906 -44.162574 158.936009 -6.738034 -142.850494 162.243969 -81.233853 -163.633895 -21.670539 23.60154 7.541453 -159.459193 -75.138537 -169.511435 -24.930406 50.398888 18.792668 49.578143 54.437596 -84.814142 52.166919 10.335239 23.0349 -64.920561 -25.378756 -106.603912 -76.803487 25.416352 -138.571725 58.862904 39.792253 172.069772 -4.821157 13.907662 19.336536 -35.044136 -66.076144 -0.0 78.278601 50.945763 -173.706562 130.216873 -52.389962 -142.774556
6.2735 70.84479999999999 9.4038 0.006495 17.241128 9.223214 -3.34448 14.727164 -0.0 1.639308 -14.989792 11.828891 12.786342 27.61971 102.109238 -39.023578 25.205455 -120.125848 11.898954 -0.336601 -3.229098 -57.430861 18.631373 -33.33845 -146.722561 -41.290716 179.464093 -159.889856 9.254053 -138.614815 169.423438 19.418533 43.945133 171.958819 -4.719928 132.722396 -153.083754 -2.680507 68.6034 13.161238 -9.995062 44.317758 -19.526118 19.426004 35.34149 -34.586295 -84.076148 -71.260748 159.282177 -64.041593 125.275315 4.185905 -0.221395 -10.072315 -160.512645 -42.563892 -166.796654 -103.458777 -45.393927 -132.1098 13.743588 48.582286 6.546478 -84.853963 -35.635706 -61.486617 141.525605 42.261943 -138.489656 57.636907 -11.35459 -36.423256 -117.752383 -31.933146 137.57648 32.186505 18.636647 -11.492998 -51.930632 -50.905958 0.414026 79.036997 26.5297 -64.48902 8.415508 48.50059 -4.916915 171.412234 11.192413 -89.743225 -16.020967 -30.513452 0.375014 52.005412 49.364603 -48.052194 -21.927647 11.051815 8.60409 178.008087 43.128277 -155.448316 -22.355768 52.773896 13.234671 11.190585 38.260044 -44.547661 -86.484362 56.817258 -43.732074 123.331693 16.417505 -55.97347 -77.845592 3.504417 -45.953507 41.609761 -20.373249 112.799403 52.704986 45.499474 39.365961 -111.081948 -23.723408 -98.816186 -78.54407 59.131846 167.074346 -14.171146 -72.217057 -106.72772
